<?xml version="1.0" encoding="UTF-8"?><svg id="Favicon" xmlns="http://www.w3.org/2000/svg" viewBox="0 0 16 16"><path d="M10.35,2.28H3.28s-1.09,1.1-1.09,1.1h8.16c1.24,0,2.26.99,2.26,2.21v10.35h1.13V5.59c0-1.83-1.51-3.31-3.39-3.32h0ZM16,15.94V5.59C16,2.54,13.47.06,10.35.06h-4.88l-1.09,1.1h5.97c2.5,0,4.52,1.98,4.52,4.43v10.35h1.14ZM10.35,4.49H1.09l-1.09,1.1h.02-.02v4.82c0,2.81,2.14,5.14,4.92,5.48l1.05-1.06h-.32c-2.5,0-4.52-1.99-4.52-4.43v-4.82h1.14v4.82c0,1.83,1.52,3.31,3.4,3.31h1.42l1.09-1.1h-2.52c-1.24,0-2.26-.99-2.26-2.2v-4.82h1.12v4.82c0,.6.51,1.1,1.13,1.1h3.6l1.09-1.1h-4.68v-4.82h4.69v10.35h1.14V5.59c0-.61-.52-1.1-1.14-1.1h0Z" fill="#347da2"/></svg>