<svg width="16" height="16" viewBox="0 0 16 16" fill="none" xmlns="http://www.w3.org/2000/svg">
<rect width="16" height="16" rx="3" fill="white"/>
<g clip-path="url(#clip0_19385_14911)">
<path d="M4.07181 6.99052C3.82139 7.01895 3.5954 6.83889 3.56733 6.58847C3.5389 6.33805 3.71896 6.11242 3.96938 6.08399C4.2198 6.05556 4.44579 6.23563 4.47386 6.48568C4.50229 6.7361 4.32222 6.96209 4.07217 6.99052" fill="#ED1A3D"/>
<path d="M5.80955 5.77819C5.50558 5.67905 5.33975 5.35249 5.43888 5.04889C5.53802 4.74528 5.86458 4.57908 6.16855 4.67822C6.47215 4.77736 6.63835 5.10356 6.53921 5.40752C6.44008 5.71113 6.11388 5.87696 5.80991 5.77819" fill="#ED1A3D"/>
<path d="M7.82249 5.20198C7.5455 4.93154 7.54039 4.48762 7.81119 4.21098C8.08163 3.93435 8.52555 3.92889 8.80219 4.19969C9.07882 4.47049 9.08392 4.91405 8.81312 5.19068C8.54268 5.46731 8.09876 5.47241 7.82249 5.20198Z" fill="#ED1A3D"/>
<path d="M9.78408 5.32041C9.6197 4.89654 9.83036 4.41981 10.2546 4.2558C10.6781 4.09179 11.1548 4.30245 11.3189 4.72633C11.4832 5.15021 11.2726 5.62693 10.8487 5.79094C10.4248 5.95495 9.94809 5.74466 9.78408 5.32041Z" fill="#ED1A3D"/>
<path d="M11.7223 6.13976C11.7223 5.59415 12.1644 5.15205 12.7104 5.15205C13.2564 5.15205 13.6978 5.59415 13.6978 6.13976C13.6978 6.68537 13.2557 7.12784 12.7104 7.12784C12.1652 7.12784 11.7223 6.685 11.7223 6.13976Z" fill="#ED1A3D"/>
<path d="M8.65166 7.90234C7.87096 7.90234 7.30421 8.46873 7.30421 9.24942C7.30421 9.86538 7.65411 10.4868 8.43626 10.4868C8.64182 10.4868 8.82442 10.4434 8.9877 10.3545V10.4671C8.9877 10.7663 8.91954 11.0433 8.42605 11.0433C8.31161 11.0433 8.20372 11.0255 8.10532 10.9978C7.98176 10.961 7.86586 10.9016 7.75032 10.8432C7.75032 10.8432 7.73866 10.8381 7.7372 10.8374C7.70878 10.8258 7.6778 10.8268 7.64937 10.8381C7.62786 10.8469 7.61219 10.8611 7.59834 10.8793C7.5823 10.9008 7.42012 11.1523 7.40882 11.1749C7.40408 11.1837 7.39679 11.2033 7.39424 11.2179C7.39278 11.2238 7.39242 11.2296 7.39242 11.2354C7.39242 11.2708 7.40772 11.3021 7.43141 11.324C7.4828 11.3717 7.54622 11.4089 7.60782 11.4421C7.62604 11.4523 7.64463 11.461 7.66285 11.4701C7.85238 11.5638 8.13083 11.6542 8.5004 11.6542C8.89585 11.6542 9.20893 11.5423 9.42944 11.3211C9.70206 11.0484 9.70206 10.774 9.70206 10.4267V8.17169L9.68056 8.16148C9.34852 7.99455 8.9826 7.90271 8.65056 7.90271M8.98661 9.78374C8.94797 9.80852 8.78177 9.89672 8.59043 9.89672C8.31088 9.89672 8.02914 9.68569 8.02914 9.21516C8.02914 8.79019 8.28063 8.49315 8.64072 8.49315C8.80073 8.49315 8.93995 8.54235 8.98661 8.56021V9.78374Z" fill="#231F20"/>
<path d="M4.37901 8.08492C4.37901 8.08055 4.37828 8.07508 4.37719 8.06888C4.36771 8.01421 4.31997 7.97266 4.26274 7.97266H3.76998C3.70547 7.97266 3.65335 8.02478 3.65335 8.08893V10.3698C3.65335 10.4343 3.70547 10.4868 3.76998 10.4868H4.26274C4.32033 10.4868 4.36808 10.4445 4.37755 10.3891C4.37901 10.3825 4.37937 10.3763 4.37937 10.3716" fill="#231F20"/>
<path d="M14.9996 7.3476C14.9996 7.3476 14.9989 7.34432 14.9989 7.34286C14.9953 7.28199 14.9453 7.23352 14.8834 7.23352H14.3903C14.3268 7.23352 14.2758 7.28418 14.2744 7.34723C14.2744 7.34796 14.2744 7.34869 14.2744 7.34942C14.2744 7.34942 14.2751 10.3767 14.2751 10.3785C14.2798 10.439 14.3298 10.486 14.3906 10.486H14.8837C14.9461 10.486 14.9967 10.4368 14.9993 10.3745C14.9993 10.3738 15 7.3476 15 7.3476" fill="#231F20"/>
<path d="M12.8689 7.90234C12.1692 7.90234 11.6618 8.46691 11.6618 9.24432C11.6618 10.0217 12.1531 10.5568 12.9138 10.5568C13.3435 10.5568 13.666 10.4001 13.7859 10.3319C13.8104 10.3191 13.8771 10.2594 13.8195 10.1464L13.6996 9.91166C13.6671 9.84861 13.6219 9.83549 13.5902 9.83549C13.5746 9.83549 13.5585 9.83877 13.5345 9.84861L13.5199 9.85554C13.3304 9.94009 13.1518 9.98128 12.9739 9.98128C12.7807 9.98128 12.6207 9.91968 12.5103 9.80342C12.4126 9.70027 12.3693 9.5687 12.3671 9.47503H14.0006V9.23995C14.0006 8.4024 13.5778 7.90271 12.8689 7.90271M12.3674 8.93999C12.4265 8.63857 12.6226 8.45306 12.8839 8.45306C13.2724 8.45306 13.3198 8.81753 13.3245 8.93999H12.3671H12.3674Z" fill="#231F20"/>
<path d="M11.4792 9.99401C11.4508 9.91675 11.3947 9.90508 11.363 9.90508C11.3466 9.90508 11.3312 9.90946 11.3152 9.91274C11.2441 9.93169 11.1785 9.94117 11.11 9.94117C10.8458 9.94117 10.8239 9.75346 10.8239 9.54499V8.58279H11.4606C11.5251 8.58279 11.5769 8.53067 11.5769 8.46616V8.08893C11.5769 8.02807 11.5299 7.9785 11.4705 7.9734C11.4676 7.9734 11.4646 7.97267 11.4621 7.97267H10.8235V7.35015C10.8235 7.28601 10.7714 7.23389 10.7069 7.23389H10.2145C10.1959 7.23389 10.1781 7.23862 10.1624 7.24664C10.1132 7.26742 10.0979 7.31188 10.0979 7.34651V9.5202C10.0979 9.86353 10.0979 10.1114 10.3155 10.3293C10.5134 10.5272 10.8101 10.5571 10.9693 10.5571C11.2135 10.5571 11.3925 10.4984 11.5058 10.4449C11.5364 10.4303 11.617 10.3738 11.5722 10.2502" fill="#231F20"/>
<path d="M2.04384 8.24566C2.0012 8.22561 1.956 8.20119 1.91628 8.17058C1.88858 8.15126 1.86525 8.12611 1.84739 8.09732C1.84666 8.09659 1.83427 8.07363 1.83245 8.06889C1.83135 8.0667 1.82662 8.05504 1.82516 8.05103C1.81641 8.02552 1.81131 7.99891 1.81131 7.97048C1.81131 7.92383 1.82443 7.88046 1.84703 7.84365C1.89222 7.76383 1.97605 7.70442 2.06352 7.67854C2.32266 7.59399 2.60439 7.67308 2.83292 7.80465C2.84604 7.81194 2.86098 7.81996 2.87592 7.82761C2.9018 7.84292 2.92877 7.85276 2.9521 7.85276C2.99037 7.85276 3.02463 7.83599 3.04905 7.80939L3.04832 7.81048C3.13215 7.70879 3.26518 7.50469 3.26736 7.50105C3.29178 7.46132 3.29434 7.40774 3.27064 7.36729C3.26445 7.35635 3.25607 7.34469 3.24695 7.33631C3.23529 7.32537 3.22654 7.31808 3.21306 7.30934C2.85697 7.06186 2.39847 6.97767 1.97386 7.04692C1.72602 7.0892 1.48547 7.20072 1.31527 7.3877C1.04082 7.68255 0.983963 8.16438 1.19827 8.5088C1.34807 8.75118 1.60283 8.90243 1.85833 9.01323C2.04639 9.1018 2.25305 9.15902 2.42799 9.27455C2.52275 9.33214 2.58617 9.43601 2.58617 9.5552C2.58617 9.68495 2.50854 9.79502 2.40685 9.84896C2.35182 9.87775 2.29788 9.90108 2.23664 9.91347C2.17614 9.9255 2.11345 9.92951 2.05149 9.92696C2.01687 9.92586 1.98188 9.92331 1.94689 9.91894C1.74352 9.90108 1.5642 9.80668 1.38561 9.71739C1.38561 9.71739 1.37285 9.71119 1.37176 9.71083C1.34114 9.69843 1.30725 9.69916 1.277 9.71155C1.25367 9.72139 1.23691 9.73634 1.22196 9.75675C1.20447 9.77971 1.02989 10.0512 1.01749 10.0753C1.01276 10.0851 1.00437 10.1063 1.00146 10.1219C1.00073 10.1281 1 10.1343 1 10.1405C1 10.1784 1.01604 10.2123 1.04191 10.2364C1.21941 10.3858 1.44648 10.4693 1.66953 10.524C2.03983 10.603 2.44476 10.5969 2.78699 10.423C3.36103 10.1599 3.55129 9.30626 3.11575 8.8412C2.82599 8.5376 2.41195 8.41878 2.04275 8.24566" fill="#231F20"/>
<path d="M7.03089 9.79939V9.08794C7.03162 8.77669 7.03234 8.42461 6.7579 8.15016C6.59571 7.98834 6.36828 7.90269 6.09894 7.90269C5.80335 7.90269 5.62185 8.04811 5.52745 8.13485V8.08966C5.52745 8.08966 5.52745 8.08857 5.52745 8.08784V8.08565C5.52745 8.08128 5.52672 8.07545 5.52526 8.06961C5.52526 8.06706 5.52381 8.06488 5.52344 8.06232C5.52344 8.0616 5.52344 8.0605 5.52344 8.05977C5.52344 8.05977 5.52308 8.05759 5.52271 8.05686C5.52271 8.05613 5.52198 8.05576 5.52198 8.05467C5.52125 8.05212 5.52053 8.04993 5.5198 8.04775C5.5198 8.04629 5.51907 8.04483 5.5187 8.04374C5.51251 8.02806 5.50267 8.01385 5.48845 8.00219C5.48663 8.00073 5.48481 7.99927 5.48226 7.99745C5.48189 7.99745 5.48153 7.99672 5.48116 7.99672C5.48116 7.99672 5.4808 7.99672 5.48043 7.99599H5.48007C5.46075 7.98141 5.43743 7.97303 5.41155 7.97303H4.91879C4.85428 7.97303 4.80252 8.02515 4.80252 8.0893V10.3698C4.80252 10.4343 4.85464 10.4868 4.91879 10.4868H5.41155C5.46914 10.4868 5.51688 10.4445 5.52599 10.3891C5.52745 10.3825 5.52818 10.3763 5.52818 10.3716V9.91237V8.67099C5.5916 8.62725 5.77383 8.52775 5.95935 8.52775C6.06723 8.52775 6.15324 8.55655 6.20719 8.61085C6.29138 8.69468 6.30523 8.84958 6.30523 9.16448V10.3698C6.30523 10.4343 6.35771 10.4868 6.42186 10.4868H6.91462C6.97221 10.4868 7.01995 10.4445 7.02906 10.3891C7.03052 10.3825 7.03125 10.3763 7.03125 10.3716V9.91237C7.03125 9.91237 7.03125 9.91164 7.03125 9.91091V9.79939" fill="#231F20"/>
</g>
<defs>
<clipPath id="clip0_19385_14911">
<rect width="14" height="7.65418" fill="white" transform="translate(1 4)"/>
</clipPath>
</defs>
</svg>
